<svg xmlns="http://www.w3.org/2000/svg" version="1.1" xmlns:xlink="http://www.w3.org/1999/xlink" xmlns:svgjs="http://svgjs.com/svgjs" width="1980" height="1238" preserveAspectRatio="none" viewBox="0 0 1980 1238"><g mask="url(&quot;#SvgjsMask1268&quot;)" fill="none"><rect width="1980" height="1238" x="0" y="0" fill="url(#SvgjsLinearGradient1269)"></rect><path d="M0 0L356.71 0L0 356.47z" fill="rgba(255, 255, 255, .1)"></path><path d="M0 356.47L356.71 0L532.02 0L0 389.56000000000006z" fill="rgba(255, 255, 255, .075)"></path><path d="M0 389.56000000000006L532.02 0L1327.1999999999998 0L0 896.5400000000001z" fill="rgba(255, 255, 255, .05)"></path><path d="M0 896.5400000000001L1327.1999999999998 0L1334.0499999999997 0L0 1117.7800000000002z" fill="rgba(255, 255, 255, .025)"></path><path d="M1980 1238L1048.12 1238L1980 1162.06z" fill="rgba(0, 0, 0, .1)"></path><path d="M1980 1162.06L1048.12 1238L917.6899999999998 1238L1980 616.0899999999999z" fill="rgba(0, 0, 0, .075)"></path><path d="M1980 616.0899999999999L917.69 1238L393.81000000000006 1238L1980 456.17999999999995z" fill="rgba(0, 0, 0, .05)"></path><path d="M1980 456.17999999999995L393.80999999999995 1238L203.06999999999994 1238L1980 301.64z" fill="rgba(0, 0, 0, .025)"></path></g><defs><mask id="SvgjsMask1268"><rect width="1980" height="1238" fill="#ffffff"></rect></mask><linearGradient x1="9.37%" y1="-14.98%" x2="90.63%" y2="114.98%" gradientUnits="userSpaceOnUse" id="SvgjsLinearGradient1269"><stop stop-color="rgba(32, 32, 96, 1)" offset="0.18"></stop><stop stop-color="rgba(1, 1, 41, 1)" offset="1"></stop></linearGradient></defs></svg>